# xmcd CD database file
#
# Track frame offsets:
#	150
#	20525
#	37144
#	60017
#	78026
#	101817
#	122689
#	141411
#	160487
#	181070
#	198950
#	219343
#	233852
#	249245
#
# Disc length: 3369 seconds
#
# Revision: 0
# Processed by: cddbd v1.5.2PL0 Copyright (c) Steve Scherf et al.
# Submitted via: CDex 1.51
#
DISCID=b40d270e
DTITLE=Max Schultz and Erik Söderlund - Dedications
DYEAR=2009
DGENRE=Jazz
TTITLE0=Mont saxonnex
TTITLE1=Mimosa
TTITLE2=Dedicated to you
TTITLE3=Road song
TTITLE4=Lotus feet
TTITLE5=Bossa for Pat Metheny
TTITLE6=For Django
TTITLE7=Pat Martino
TTITLE8=John and Paco
TTITLE9=Blessed relif
TTITLE10=Drifting
TTITLE11=Even Steven
TTITLE12=Song for sco
TTITLE13=Mr stoneface
EXTD=YEAR: 2009
EXTT0=
EXTT1=
EXTT2=
EXTT3=
EXTT4=
EXTT5=
EXTT6=
EXTT7=
EXTT8=
EXTT9=
EXTT10=
EXTT11=
EXTT12=
EXTT13=
PLAYORDER=
